<svg width="56" height="56" viewBox="0 0 56 56" fill="none" xmlns="http://www.w3.org/2000/svg">
<g clip-path="url(#clip0_223_3285)">
<path d="M23.14 10.19L20.63 8.2C20.3 7.94 19.83 7.94 19.5 8.2L16.99 10.21C16.79 10.37 16.54 10.44 16.29 10.4L13.11 9.92C12.69 9.86 12.29 10.09 12.13 10.49L10.96 13.48C10.87 13.71 10.68 13.9 10.45 13.99L7.46 15.17C7.07 15.32 6.83 15.73 6.9 16.15L7.38 19.33C7.42 19.58 7.35 19.83 7.19 20.03L5.2 22.54C4.94 22.87 4.94 23.34 5.2 23.67L7.21 26.18C7.37 26.38 7.44 26.63 7.4 26.88L6.92 30.06C6.86 30.48 7.09 30.88 7.49 31.04L10.48 32.21C10.71 32.3 10.9 32.49 10.99 32.72L12.17 35.71C12.32 36.1 12.73 36.34 13.15 36.27L16.33 35.79C16.58 35.75 16.83 35.82 17.03 35.98L19.55 37.98C19.88 38.24 20.35 38.24 20.68 37.98L23.19 35.97C23.39 35.81 23.64 35.74 23.89 35.78L27.07 36.26C27.49 36.32 27.89 36.09 28.05 35.69L29.22 32.7C29.31 32.47 29.5 32.28 29.73 32.19L32.72 31.01C33.11 30.86 33.35 30.45 33.28 30.03L32.8 26.85C32.76 26.6 32.83 26.35 32.99 26.15L34.99 23.63C35.25 23.3 35.25 22.83 34.99 22.5L32.98 19.99C32.82 19.79 32.75 19.54 32.79 19.29L33.27 16.11C33.33 15.69 33.1 15.29 32.7 15.13L29.69 13.95C29.46 13.86 29.28 13.68 29.19 13.46L27.88 10.37C27.72 9.98 27.3 9.76 26.89 9.83L23.87 10.36C23.61 10.4 23.35 10.34 23.15 10.18L23.14 10.19Z" fill="#F2DC86"/>
<path d="M5.2 23.63C4.94 23.3 4.94 22.83 5.2 22.5L7.21 19.99C7.37 19.79 7.44 19.54 7.4 19.29L6.92 16.11C6.86 15.69 7.09 15.29 7.49 15.13L10.5 13.95C10.73 13.86 10.91 13.68 11 13.46L12.31 10.37C12.47 9.98001 12.89 9.76001 13.3 9.83001L16.32 10.36C16.58 10.4 16.84 10.34 17.04 10.18L19.54 8.20001C19.7 8.07001 19.89 8.01001 20.09 8.01001V38.18C19.88 38.18 19.68 38.12 19.51 37.98L17 35.97C16.8 35.81 16.55 35.74 16.3 35.78L13.12 36.26C12.7 36.32 12.3 36.09 12.14 35.69L10.97 32.7C10.88 32.47 10.69 32.28 10.46 32.19L7.47 31.01C7.08 30.86 6.84 30.45 6.91 30.03L7.39 26.85C7.43 26.6 7.36 26.35 7.2 26.15L5.2 23.63Z" fill="#E8CD65"/>
<path d="M20.09 33.21C25.6792 33.21 30.21 28.6792 30.21 23.09C30.21 17.5009 25.6792 12.97 20.09 12.97C14.5009 12.97 9.97003 17.5009 9.97003 23.09C9.97003 28.6792 14.5009 33.21 20.09 33.21Z" fill="#EDC05E"/>
<path d="M9.97009 23.09C9.97009 28.6791 14.501 33.21 20.0901 33.21V12.97C14.501 12.97 9.97009 17.5008 9.97009 23.09Z" fill="#E7B54A"/>
<path d="M16.4 32.53C16.68 32.53 16.94 32.58 17.21 32.61C18.14 30.74 20.05 29.44 22.29 29.44C22.9 29.44 23.48 29.56 24.03 29.74C24.73 25.44 28.45 22.16 32.95 22.16C37.95 22.16 42 26.21 42 31.21C42 31.78 41.94 32.34 41.84 32.89C42.54 32.68 43.26 32.53 44.03 32.53C48.17 32.53 51.52 35.88 51.52 40.02C51.52 44.16 48.17 47.51 44.03 47.51H16.4C12.26 47.51 8.91003 44.16 8.91003 40.02C8.91003 35.88 12.26 32.53 16.4 32.53Z" fill="#E4F2F9"/>
<path d="M16.4 32.5301C16.68 32.5301 16.94 32.5801 17.21 32.6101C18.14 30.7401 20.05 29.4401 22.29 29.4401C22.9 29.4401 23.48 29.5601 24.03 29.7401C24.58 26.3601 27.02 23.6401 30.21 22.6201V47.5201H16.4C12.26 47.5201 8.91003 44.1701 8.91003 40.0301C8.91003 35.8901 12.26 32.5401 16.4 32.5401V32.5301Z" fill="#D7EDF9"/>
</g>
<defs>
<clipPath id="clip0_223_3285">
<rect width="46.5" height="39.52" fill="white" transform="translate(5 8)"/>
</clipPath>
</defs>
</svg>
