<svg width="56" height="56" viewBox="0 0 56 56" fill="none" xmlns="http://www.w3.org/2000/svg">
<g clip-path="url(#clip0_223_3287)">
<path d="M26.66 21.01C26.85 21.01 27.02 21.05 27.21 21.07C27.84 19.81 29.13 18.93 30.64 18.93C31.05 18.93 31.44 19.01 31.82 19.13C32.3 16.23 34.81 14.01 37.85 14.01C41.23 14.01 43.97 16.75 43.97 20.13C43.97 20.52 43.93 20.9 43.86 21.26C44.33 21.12 44.82 21.02 45.34 21.02C48.14 21.02 50.41 23.29 50.41 26.09C50.41 28.89 48.14 31.16 45.34 31.16H26.67C23.87 31.16 21.6 28.89 21.6 26.09C21.6 23.29 23.87 21.02 26.67 21.02L26.66 21.01Z" fill="#5A5B5B"/>
<path d="M26.66 21.01C26.85 21.01 27.02 21.05 27.21 21.07C27.84 19.81 29.13 18.93 30.64 18.93C31.05 18.93 31.44 19.01 31.82 19.13C32.19 16.84 33.84 15 36 14.31V31.15H26.66C23.86 31.15 21.59 28.88 21.59 26.08C21.59 23.28 23.86 21.01 26.66 21.01Z" fill="#434343"/>
<path d="M35.61 29.13C35.37 29.13 35.14 29.18 34.91 29.2C34.1 27.57 32.43 26.44 30.48 26.44C29.95 26.44 29.44 26.55 28.96 26.7C28.35 22.95 25.1 20.09 21.18 20.09C16.82 20.09 13.29 23.62 13.29 27.98C13.29 28.48 13.34 28.97 13.43 29.44C12.82 29.25 12.19 29.12 11.52 29.12C7.93 29.13 5 32.05 5 35.66C5 39.27 7.93 42.19 11.53 42.19H35.61C39.22 42.19 42.14 39.26 42.14 35.66C42.14 32.06 39.21 29.13 35.61 29.13Z" fill="#E4F2F9"/>
<path d="M23.57 20.49C22.82 20.25 22.02 20.1 21.19 20.1C16.83 20.1 13.3 23.63 13.3 27.99C13.3 28.49 13.35 28.98 13.44 29.45C12.83 29.26 12.2 29.13 11.53 29.13C7.92 29.13 5 32.06 5 35.66C5 39.26 7.93 42.19 11.53 42.19H23.57V20.49Z" fill="#D7EDF9"/>
</g>
<defs>
<clipPath id="clip0_223_3287">
<rect width="45.4" height="28.19" fill="white" transform="translate(5 14)"/>
</clipPath>
</defs>
</svg>
