<svg width="56" height="56" viewBox="0 0 56 56" fill="none" xmlns="http://www.w3.org/2000/svg">
<g clip-path="url(#clip0_223_3289)">
<path d="M10.45 49.22C10.35 49.22 10.25 49.19 10.17 49.13C9.93999 48.97 9.88999 48.66 10.04 48.43L11.97 45.63C12.13 45.4 12.44 45.34 12.67 45.5C12.9 45.66 12.95 45.97 12.8 46.2L10.87 49C10.77 49.14 10.62 49.22 10.46 49.22H10.45ZM14.32 43.62C14.22 43.62 14.12 43.59 14.04 43.53C13.81 43.37 13.76 43.06 13.91 42.83L15.84 40.03C16 39.8 16.31 39.74 16.54 39.9C16.77 40.06 16.82 40.37 16.67 40.6L14.74 43.4C14.64 43.54 14.49 43.62 14.33 43.62H14.32ZM18.18 38.02C18.08 38.02 17.98 37.99 17.9 37.93C17.67 37.77 17.62 37.46 17.77 37.23L19.7 34.43C19.86 34.2 20.17 34.14 20.4 34.3C20.63 34.46 20.68 34.77 20.53 35L18.6 37.8C18.5 37.94 18.35 38.02 18.19 38.02H18.18Z" fill="#E4EDF3"/>
<path d="M18.43 49.22C18.33 49.22 18.23 49.19 18.15 49.13C17.92 48.97 17.87 48.66 18.02 48.43L19.95 45.63C20.11 45.4 20.42 45.34 20.65 45.5C20.88 45.66 20.93 45.97 20.78 46.2L18.85 49C18.75 49.14 18.6 49.22 18.44 49.22H18.43ZM22.29 43.62C22.19 43.62 22.09 43.59 22.01 43.53C21.78 43.37 21.73 43.06 21.88 42.83L23.81 40.03C23.97 39.8 24.28 39.74 24.51 39.9C24.74 40.06 24.79 40.37 24.64 40.6L22.71 43.4C22.61 43.54 22.46 43.62 22.3 43.62H22.29ZM26.16 38.02C26.06 38.02 25.96 37.99 25.88 37.93C25.65 37.77 25.6 37.46 25.75 37.23L27.68 34.43C27.84 34.2 28.15 34.14 28.38 34.3C28.61 34.46 28.66 34.77 28.51 35L26.58 37.8C26.48 37.94 26.33 38.02 26.17 38.02H26.16Z" fill="#E4EDF3"/>
<path d="M26.41 49.22C26.31 49.22 26.21 49.19 26.13 49.13C25.9 48.97 25.85 48.66 26 48.43L27.93 45.63C28.09 45.4 28.4 45.34 28.63 45.5C28.86 45.66 28.92 45.97 28.76 46.2L26.83 49C26.73 49.14 26.58 49.22 26.42 49.22H26.41ZM30.27 43.62C30.17 43.62 30.07 43.59 29.99 43.53C29.76 43.37 29.71 43.06 29.86 42.83L31.79 40.03C31.95 39.8 32.26 39.74 32.49 39.9C32.72 40.06 32.77 40.37 32.62 40.6L30.69 43.4C30.59 43.54 30.44 43.62 30.28 43.62H30.27ZM34.13 38.02C34.03 38.02 33.93 37.99 33.85 37.93C33.62 37.77 33.57 37.46 33.72 37.23L35.65 34.43C35.81 34.2 36.12 34.14 36.35 34.3C36.58 34.46 36.63 34.77 36.48 35L34.55 37.8C34.45 37.94 34.3 38.02 34.14 38.02H34.13Z" fill="#E4EDF3"/>
<path d="M34.39 49.22C34.29 49.22 34.19 49.19 34.11 49.13C33.88 48.97 33.83 48.66 33.98 48.43L35.91 45.63C36.07 45.4 36.38 45.35 36.61 45.5C36.84 45.66 36.89 45.97 36.74 46.2L34.81 49C34.71 49.14 34.56 49.22 34.4 49.22H34.39ZM38.25 43.62C38.15 43.62 38.05 43.59 37.97 43.53C37.74 43.37 37.69 43.06 37.84 42.83L39.77 40.03C39.93 39.8 40.24 39.74 40.47 39.9C40.7 40.06 40.75 40.37 40.6 40.6L38.67 43.4C38.57 43.54 38.42 43.62 38.26 43.62H38.25ZM42.11 38.02C42.01 38.02 41.91 37.99 41.83 37.93C41.6 37.77 41.55 37.46 41.7 37.23L43.63 34.43C43.79 34.2 44.1 34.14 44.33 34.3C44.56 34.46 44.61 34.77 44.46 35L42.53 37.8C42.43 37.94 42.28 38.02 42.12 38.02H42.11Z" fill="#E4EDF3"/>
<path d="M22.56 8.75994L20.55 7.15994C20.28 6.94994 19.91 6.94994 19.64 7.15994L17.62 8.76994C17.46 8.89994 17.26 8.94994 17.06 8.91994L14.51 8.53994C14.17 8.48994 13.85 8.67994 13.73 8.98994L12.79 11.3899C12.72 11.5799 12.57 11.7299 12.38 11.7999L9.98 12.7499C9.66 12.8699 9.48 13.1999 9.53 13.5399L9.92 16.0899C9.95 16.2899 9.9 16.4899 9.77 16.6499L8.16 18.6699C7.95 18.9399 7.95 19.3099 8.16 19.5799L9.77 21.5999C9.9 21.7599 9.95 21.9599 9.92 22.1599L9.54 24.7099C9.49 25.0499 9.68 25.3699 9.99 25.4899L12.39 26.4299C12.58 26.4999 12.73 26.6499 12.8 26.8399L13.75 29.2399C13.87 29.5599 14.2 29.7399 14.54 29.6899L17.09 29.2999C17.29 29.2699 17.49 29.3199 17.65 29.4499L19.67 31.0599C19.94 31.2699 20.31 31.2699 20.58 31.0599L22.6 29.4499C22.76 29.3199 22.96 29.2699 23.16 29.2999L25.71 29.6799C26.05 29.7299 26.37 29.5399 26.49 29.2299L27.43 26.8299C27.5 26.6399 27.65 26.4899 27.84 26.4199L30.24 25.4699C30.56 25.3499 30.74 25.0199 30.69 24.6799L30.3 22.1299C30.27 21.9299 30.32 21.7299 30.45 21.5699L32.06 19.5499C32.27 19.2799 32.27 18.9099 32.06 18.6399L30.45 16.6199C30.32 16.4599 30.27 16.2599 30.3 16.0599L30.68 13.5099C30.73 13.1699 30.54 12.8499 30.23 12.7299L27.82 11.7899C27.64 11.7199 27.49 11.5799 27.42 11.3999L26.37 8.91994C26.24 8.60994 25.91 8.42994 25.57 8.48994L23.15 8.91994C22.95 8.95994 22.73 8.89994 22.57 8.76994L22.56 8.75994Z" fill="#F2DC86"/>
<path d="M8.16 19.55C7.95 19.28 7.95 18.91 8.16 18.64L9.77 16.62C9.9 16.46 9.95 16.26 9.92 16.06L9.54 13.51C9.49 13.17 9.68 12.85 9.99 12.73L12.4 11.79C12.58 11.72 12.73 11.58 12.8 11.4L13.85 8.92C13.98 8.61 14.31 8.43 14.65 8.49L17.07 8.92C17.27 8.96 17.49 8.9 17.65 8.77L19.67 7.16C19.8 7.06 19.95 7.01 20.11 7V31.22C19.94 31.22 19.78 31.17 19.64 31.06L17.62 29.45C17.46 29.32 17.26 29.27 17.06 29.3L14.51 29.68C14.17 29.73 13.85 29.54 13.73 29.23L12.79 26.83C12.72 26.64 12.57 26.49 12.38 26.42L9.98 25.47C9.66 25.35 9.48 25.02 9.53 24.68L9.92 22.13C9.95 21.93 9.9 21.73 9.77 21.57L8.16 19.55Z" fill="#E8CD65"/>
<path d="M20.11 27.23C24.5945 27.23 28.23 23.5945 28.23 19.11C28.23 14.6254 24.5945 10.99 20.11 10.99C15.6254 10.99 11.99 14.6254 11.99 19.11C11.99 23.5945 15.6254 27.23 20.11 27.23Z" fill="#EDC05E"/>
<path d="M11.9901 19.11C11.9901 23.5945 15.6255 27.23 20.1101 27.23V10.99C15.6255 10.99 11.9901 14.6254 11.9901 19.11Z" fill="#E7B54A"/>
<path d="M43.28 22.06C43.1 22.06 42.94 22.09 42.76 22.11C42.16 20.91 40.94 20.08 39.51 20.08C39.12 20.08 38.75 20.16 38.4 20.27C37.95 17.52 35.57 15.42 32.69 15.42C29.49 15.42 26.9 18.01 26.9 21.21C26.9 21.58 26.94 21.94 27 22.28C26.55 22.14 26.09 22.05 25.6 22.05C22.95 22.05 20.8 24.2 20.8 26.85C20.8 29.5 22.95 31.65 25.6 31.65H43.28C45.93 31.65 48.08 29.5 48.08 26.85C48.08 24.2 45.93 22.05 43.28 22.05V22.06Z" fill="#BEEAFC"/>
<path d="M34.44 15.71C33.89 15.53 33.3 15.42 32.69 15.42C29.49 15.42 26.9 18.01 26.9 21.21C26.9 21.58 26.94 21.94 27 22.28C26.55 22.14 26.09 22.05 25.6 22.05C22.95 22.05 20.8 24.2 20.8 26.85C20.8 29.5 22.95 31.65 25.6 31.65H34.44V15.71Z" fill="#AEE4FF"/>
<path d="M14.79 27.75C14.97 27.75 15.13 27.78 15.31 27.8C15.91 26.6 17.13 25.77 18.56 25.77C18.95 25.77 19.32 25.85 19.67 25.96C20.12 23.21 22.5 21.11 25.38 21.11C28.58 21.11 31.17 23.7 31.17 26.9C31.17 27.27 31.13 27.63 31.07 27.97C31.52 27.83 31.98 27.74 32.47 27.74C35.12 27.74 37.27 29.89 37.27 32.54C37.27 35.19 35.12 37.34 32.47 37.34H14.79C12.14 37.34 9.98999 35.19 9.98999 32.54C9.98999 29.89 12.14 27.74 14.79 27.74V27.75Z" fill="#E4F2F9"/>
<path d="M14.79 27.75C14.97 27.75 15.13 27.78 15.31 27.8C15.91 26.6 17.13 25.77 18.56 25.77C18.95 25.77 19.32 25.85 19.67 25.96C20.02 23.8 21.58 22.05 23.63 21.4V37.34H14.79C12.14 37.34 9.98999 35.19 9.98999 32.54C9.98999 29.89 12.14 27.74 14.79 27.74V27.75Z" fill="#D7EDF9"/>
</g>
<defs>
<clipPath id="clip0_223_3289">
<rect width="40.08" height="42.22" fill="white" transform="translate(8 7)"/>
</clipPath>
</defs>
</svg>
