<svg width="56" height="56" viewBox="0 0 56 56" fill="none" xmlns="http://www.w3.org/2000/svg">
<g clip-path="url(#clip0_223_3290)">
<path d="M33.78 12.8601C33.92 12.8601 34.06 12.8901 34.2 12.9001C34.69 11.9201 35.69 11.2401 36.86 11.2401C37.18 11.2401 37.48 11.3001 37.77 11.4001C38.14 9.15005 40.09 7.43005 42.44 7.43005C45.06 7.43005 47.18 9.55005 47.18 12.1701C47.18 12.4701 47.15 12.7601 47.1 13.0501C47.46 12.9401 47.84 12.8601 48.24 12.8601C50.41 12.8601 52.16 14.6201 52.16 16.7801C52.16 18.9401 50.4 20.7001 48.24 20.7001H33.78C31.61 20.7001 29.86 18.9401 29.86 16.7801C29.86 14.6201 31.62 12.8601 33.78 12.8601Z" fill="#9FDEF7"/>
<path d="M33.78 12.86C33.92 12.86 34.06 12.89 34.2 12.9C34.69 11.92 35.69 11.24 36.86 11.24C37.18 11.24 37.48 11.3 37.77 11.4C38.06 9.63004 39.33 8.20004 41.01 7.67004V20.7H33.78C31.61 20.7 29.86 18.94 29.86 16.78C29.86 14.62 31.62 12.86 33.78 12.86Z" fill="#83D4ED"/>
<path d="M13.98 15.19C14.2 15.19 14.41 15.23 14.62 15.25C15.36 13.77 16.87 12.75 18.63 12.75C19.11 12.75 19.57 12.85 20.01 12.99C20.57 9.6 23.51 7 27.06 7C31.01 7 34.21 10.2 34.21 14.15C34.21 14.6 34.16 15.05 34.08 15.47C34.63 15.3 35.2 15.18 35.81 15.18C39.08 15.18 41.73 17.83 41.73 21.1C41.73 24.37 39.08 27.02 35.81 27.02H13.98C10.71 27.02 8.06 24.37 8.06 21.1C8.06 17.83 10.71 15.18 13.98 15.18V15.19Z" fill="#BEEAFC"/>
<path d="M13.98 15.19C14.2 15.19 14.41 15.23 14.62 15.25C15.36 13.77 16.87 12.75 18.63 12.75C19.11 12.75 19.57 12.85 20.01 12.99C20.45 10.32 22.37 8.16999 24.9 7.35999V27.03H13.99C10.72 27.03 8.07001 24.38 8.07001 21.11C8.07001 17.84 10.72 15.19 13.99 15.19H13.98Z" fill="#AEE4FF"/>
<path d="M22.38 25.82C22.24 25.82 22.1 25.85 21.96 25.86C21.47 24.88 20.47 24.2 19.3 24.2C18.98 24.2 18.68 24.26 18.39 24.36C18.02 22.11 16.07 20.39 13.72 20.39C11.1 20.39 8.98 22.51 8.98 25.13C8.98 25.43 9.01 25.72 9.06 26.01C8.7 25.9 8.32 25.82 7.92 25.82C5.76 25.82 4 27.58 4 29.74C4 31.9 5.76 33.66 7.92 33.66H22.38C24.55 33.66 26.3 31.9 26.3 29.74C26.3 27.58 24.54 25.82 22.38 25.82Z" fill="#E4F2F9"/>
<path d="M15.15 20.63C14.7 20.49 14.22 20.39 13.72 20.39C11.1 20.39 8.98 22.51 8.98 25.13C8.98 25.43 9.01 25.72 9.06 26.01C8.7 25.9 8.32 25.82 7.92 25.82C5.75 25.82 4 27.58 4 29.74C4 31.9 5.76 33.66 7.92 33.66H15.15V20.63Z" fill="#D7EDF9"/>
<path d="M44.1 37.64H42.04V33.87L37.91 40.04H39.98V43.81L44.1 37.64Z" fill="#F0E192"/>
<path d="M39.98 40.04V43.81L41.01 42.27V35.41L37.91 40.04H39.98Z" fill="#EAD776"/>
<path d="M44.89 21.74H42.3V17.02L37.12 24.76H39.71V29.49L44.89 21.74Z" fill="#F0E192"/>
<path d="M39.71 24.7601V29.4901L41.01 27.5501V18.9501L37.12 24.7601H39.71Z" fill="#EAD776"/>
<path d="M33.82 30.1999H27.87V19.3199L15.96 37.1399H21.91V48.0099L33.82 30.1999Z" fill="#F0E192"/>
<path d="M21.91 37.1399V48.0099L24.89 43.5599V23.7699L15.96 37.1399H21.91Z" fill="#EAD776"/>
</g>
<defs>
<clipPath id="clip0_223_3290">
<rect width="48.16" height="41.01" fill="white" transform="translate(4 7)"/>
</clipPath>
</defs>
</svg>
