<svg width="56" height="56" viewBox="0 0 56 56" fill="none" xmlns="http://www.w3.org/2000/svg">
<g clip-path="url(#clip0_223_3291)">
<path d="M16.29 14.69C16.52 14.69 16.74 14.73 16.97 14.76C17.75 13.19 19.36 12.1 21.23 12.1C21.74 12.1 22.23 12.2 22.69 12.35C23.28 8.74999 26.4 5.98999 30.17 5.98999C34.36 5.98999 37.76 9.38999 37.76 13.58C37.76 14.06 37.71 14.53 37.62 14.99C38.2 14.81 38.81 14.69 39.45 14.69C42.92 14.69 45.74 17.51 45.74 20.98C45.74 24.45 42.92 27.27 39.45 27.27H16.29C12.82 27.27 10 24.46 10 20.98C10 17.5 12.82 14.69 16.29 14.69Z" fill="#E4F2F9"/>
<path d="M16.29 14.69C16.52 14.69 16.74 14.73 16.97 14.76C17.75 13.19 19.36 12.1 21.23 12.1C21.74 12.1 22.23 12.2 22.69 12.35C23.15 9.51 25.2 7.23 27.88 6.37V27.26H16.29C12.82 27.26 10 24.44 10 20.97C10 17.5 12.82 14.68 16.29 14.68V14.69Z" fill="#D7EDF9"/>
<path d="M21.36 38.55L20.18 37.87L20.8 37.7C21.01 37.64 21.14 37.42 21.08 37.21C21.02 37 20.8 36.87 20.59 36.93L19.2 37.3L17.94 36.57L19.2 35.84L20.59 36.21C20.59 36.21 20.66 36.22 20.69 36.22C20.87 36.22 21.03 36.1 21.08 35.92C21.14 35.71 21.01 35.49 20.8 35.43L20.18 35.26L21.36 34.58C21.55 34.47 21.62 34.22 21.51 34.03C21.4 33.84 21.16 33.77 20.96 33.88L19.78 34.56L19.95 33.94C20.01 33.73 19.88 33.51 19.67 33.45C19.46 33.4 19.24 33.52 19.18 33.73L18.81 35.12L17.55 35.85V34.39L18.57 33.37C18.73 33.21 18.73 32.96 18.57 32.8C18.41 32.64 18.16 32.64 18 32.8L17.55 33.25V31.89C17.55 31.67 17.37 31.49 17.15 31.49C16.93 31.49 16.75 31.67 16.75 31.89V33.25L16.3 32.8C16.14 32.64 15.89 32.64 15.73 32.8C15.57 32.96 15.57 33.21 15.73 33.37L16.75 34.39V35.85L15.49 35.12L15.12 33.73C15.06 33.52 14.84 33.39 14.63 33.45C14.42 33.51 14.29 33.73 14.35 33.94L14.52 34.56L13.34 33.88C13.15 33.77 12.9 33.84 12.79 34.03C12.68 34.22 12.75 34.47 12.94 34.58L14.12 35.26L13.5 35.43C13.29 35.49 13.16 35.71 13.22 35.92C13.27 36.1 13.43 36.22 13.61 36.22C13.64 36.22 13.68 36.22 13.71 36.21L15.1 35.84L16.36 36.57L15.1 37.3L13.71 36.93C13.5 36.88 13.28 37 13.22 37.21C13.16 37.42 13.29 37.64 13.5 37.7L14.12 37.87L12.94 38.55C12.75 38.66 12.68 38.91 12.79 39.1C12.86 39.23 13 39.3 13.14 39.3C13.21 39.3 13.28 39.28 13.34 39.25L14.52 38.57L14.35 39.19C14.29 39.4 14.42 39.62 14.63 39.68C14.66 39.68 14.7 39.69 14.73 39.69C14.91 39.69 15.07 39.57 15.12 39.39L15.49 38L16.75 37.27V38.73L15.73 39.75C15.57 39.91 15.57 40.16 15.73 40.32C15.89 40.48 16.14 40.48 16.3 40.32L16.75 39.87V41.23C16.75 41.45 16.93 41.63 17.15 41.63C17.37 41.63 17.55 41.45 17.55 41.23V39.87L18 40.32C18.08 40.4 18.18 40.44 18.28 40.44C18.38 40.44 18.48 40.4 18.56 40.32C18.72 40.16 18.72 39.91 18.56 39.75L17.54 38.73V37.27L18.8 38L19.17 39.39C19.22 39.57 19.38 39.69 19.56 39.69C19.59 39.69 19.63 39.69 19.66 39.68C19.87 39.62 20 39.4 19.94 39.19L19.77 38.57L20.95 39.25C21.01 39.29 21.08 39.3 21.15 39.3C21.29 39.3 21.42 39.23 21.5 39.1C21.61 38.91 21.54 38.66 21.35 38.55H21.36Z" fill="#E4F2F9"/>
<path d="M16.74 31.93V33.29L16.29 32.84C16.13 32.68 15.88 32.68 15.72 32.84C15.56 33 15.56 33.25 15.72 33.41L16.74 34.43V35.89L15.48 35.16L15.11 33.77C15.05 33.56 14.83 33.43 14.62 33.49C14.41 33.55 14.28 33.77 14.34 33.98L14.51 34.6L13.33 33.92C13.14 33.81 12.89 33.88 12.78 34.07C12.67 34.26 12.74 34.51 12.93 34.62L14.11 35.3L13.49 35.47C13.28 35.53 13.15 35.75 13.21 35.96C13.26 36.14 13.42 36.26 13.6 36.26C13.63 36.26 13.67 36.26 13.7 36.25L15.09 35.88L16.35 36.61L15.09 37.34L13.7 36.97C13.49 36.92 13.27 37.04 13.21 37.25C13.15 37.46 13.28 37.68 13.49 37.74L14.11 37.91L12.93 38.59C12.74 38.7 12.67 38.95 12.78 39.14C12.85 39.27 12.99 39.34 13.13 39.34C13.2 39.34 13.27 39.32 13.33 39.29L14.51 38.61L14.34 39.23C14.28 39.44 14.41 39.66 14.62 39.72C14.65 39.72 14.69 39.73 14.72 39.73C14.9 39.73 15.06 39.61 15.11 39.43L15.48 38.04L16.74 37.31V38.77L15.72 39.79C15.56 39.95 15.56 40.2 15.72 40.36C15.88 40.52 16.13 40.52 16.29 40.36L16.74 39.91V41.27C16.74 41.49 16.92 41.67 17.14 41.67V31.58C16.92 31.58 16.74 31.76 16.74 31.98V31.93Z" fill="#D7EDF9"/>
<path d="M17.14 49.28C17.6923 49.28 18.14 48.8323 18.14 48.28C18.14 47.7277 17.6923 47.28 17.14 47.28C16.5877 47.28 16.14 47.7277 16.14 48.28C16.14 48.8323 16.5877 49.28 17.14 49.28Z" fill="#E4F2F9"/>
<path d="M32.1 43.36L30.92 44.04L31.54 44.21C31.75 44.27 31.88 44.49 31.82 44.7C31.76 44.91 31.54 45.04 31.33 44.98L29.94 44.61L28.68 45.34L29.94 46.07L31.33 45.7C31.33 45.7 31.4 45.69 31.43 45.69C31.61 45.69 31.77 45.81 31.82 45.99C31.88 46.2 31.75 46.42 31.54 46.48L30.92 46.65L32.1 47.33C32.29 47.44 32.36 47.69 32.25 47.88C32.14 48.07 31.9 48.14 31.7 48.03L30.52 47.35L30.69 47.97C30.75 48.18 30.62 48.4 30.41 48.46C30.2 48.51 29.98 48.39 29.92 48.18L29.55 46.79L28.29 46.06V47.52L29.31 48.54C29.47 48.7 29.47 48.95 29.31 49.11C29.15 49.27 28.9 49.27 28.74 49.11L28.29 48.66V50.02C28.29 50.24 28.11 50.42 27.89 50.42C27.67 50.42 27.49 50.24 27.49 50.02V48.66L27.04 49.11C26.88 49.27 26.63 49.27 26.47 49.11C26.31 48.95 26.31 48.7 26.47 48.54L27.49 47.52V46.06L26.23 46.79L25.86 48.18C25.8 48.39 25.58 48.52 25.37 48.46C25.16 48.4 25.03 48.18 25.09 47.97L25.26 47.35L24.08 48.03C23.89 48.14 23.64 48.07 23.53 47.88C23.42 47.69 23.49 47.44 23.68 47.33L24.86 46.65L24.24 46.48C24.03 46.42 23.9 46.2 23.96 45.99C24.01 45.81 24.17 45.69 24.35 45.69C24.38 45.69 24.42 45.69 24.45 45.7L25.84 46.07L27.1 45.34L25.84 44.61L24.45 44.98C24.24 45.03 24.02 44.91 23.96 44.7C23.9 44.49 24.03 44.27 24.24 44.21L24.86 44.04L23.68 43.36C23.49 43.25 23.42 43 23.53 42.81C23.6 42.68 23.74 42.61 23.88 42.61C23.95 42.61 24.02 42.63 24.08 42.66L25.26 43.34L25.09 42.72C25.03 42.51 25.16 42.29 25.37 42.23C25.4 42.23 25.44 42.22 25.47 42.22C25.65 42.22 25.81 42.34 25.86 42.52L26.23 43.91L27.49 44.64V43.18L26.47 42.16C26.31 42 26.31 41.75 26.47 41.59C26.63 41.43 26.88 41.43 27.04 41.59L27.49 42.04V40.68C27.49 40.46 27.67 40.28 27.89 40.28C28.11 40.28 28.29 40.46 28.29 40.68V42.04L28.74 41.59C28.82 41.51 28.92 41.47 29.02 41.47C29.12 41.47 29.22 41.51 29.3 41.59C29.46 41.75 29.46 42 29.3 42.16L28.28 43.18V44.64L29.54 43.91L29.91 42.52C29.96 42.34 30.12 42.22 30.3 42.22C30.33 42.22 30.37 42.22 30.4 42.23C30.61 42.29 30.74 42.51 30.68 42.72L30.51 43.34L31.69 42.66C31.75 42.62 31.82 42.61 31.89 42.61C32.03 42.61 32.16 42.68 32.24 42.81C32.35 43 32.28 43.25 32.09 43.36H32.1Z" fill="#E4F2F9"/>
<path d="M27.47 49.98V48.62L27.02 49.07C26.86 49.23 26.61 49.23 26.45 49.07C26.29 48.91 26.29 48.66 26.45 48.5L27.47 47.48V46.02L26.21 46.75L25.84 48.14C25.78 48.35 25.56 48.48 25.35 48.42C25.14 48.36 25.01 48.14 25.07 47.93L25.24 47.31L24.06 47.99C23.87 48.1 23.62 48.03 23.51 47.84C23.4 47.65 23.47 47.4 23.66 47.29L24.84 46.61L24.22 46.44C24.01 46.38 23.88 46.16 23.94 45.95C23.99 45.77 24.15 45.65 24.33 45.65C24.36 45.65 24.4 45.65 24.43 45.66L25.82 46.03L27.08 45.3L25.82 44.57L24.43 44.94C24.22 44.99 24 44.87 23.94 44.66C23.88 44.45 24.01 44.23 24.22 44.17L24.84 44L23.66 43.32C23.47 43.21 23.4 42.96 23.51 42.77C23.58 42.64 23.72 42.57 23.86 42.57C23.93 42.57 24 42.59 24.06 42.62L25.24 43.3L25.07 42.68C25.01 42.47 25.14 42.25 25.35 42.19C25.38 42.19 25.42 42.18 25.45 42.18C25.63 42.18 25.79 42.3 25.84 42.48L26.21 43.87L27.47 44.6V43.14L26.45 42.12C26.29 41.96 26.29 41.71 26.45 41.55C26.61 41.39 26.86 41.39 27.02 41.55L27.47 42V40.64C27.47 40.42 27.65 40.24 27.87 40.24V50.33C27.65 50.33 27.47 50.15 27.47 49.93V49.98Z" fill="#D7EDF9"/>
<path d="M27.87 34.63C28.4223 34.63 28.87 34.1823 28.87 33.63C28.87 33.0777 28.4223 32.63 27.87 32.63C27.3177 32.63 26.87 33.0777 26.87 33.63C26.87 34.1823 27.3177 34.63 27.87 34.63Z" fill="#E4F2F9"/>
<path d="M42.83 38.55L41.65 37.87L42.27 37.7C42.48 37.64 42.61 37.42 42.55 37.21C42.49 37 42.27 36.87 42.06 36.93L40.67 37.3L39.41 36.57L40.67 35.84L42.06 36.21C42.06 36.21 42.13 36.22 42.16 36.22C42.34 36.22 42.5 36.1 42.55 35.92C42.61 35.71 42.48 35.49 42.27 35.43L41.65 35.26L42.83 34.58C43.02 34.47 43.09 34.22 42.98 34.03C42.87 33.84 42.63 33.77 42.43 33.88L41.25 34.56L41.42 33.94C41.48 33.73 41.35 33.51 41.14 33.45C40.93 33.4 40.71 33.52 40.65 33.73L40.28 35.12L39.02 35.85V34.39L40.04 33.37C40.2 33.21 40.2 32.96 40.04 32.8C39.88 32.64 39.63 32.64 39.47 32.8L39.02 33.25V31.89C39.02 31.67 38.84 31.49 38.62 31.49C38.4 31.49 38.22 31.67 38.22 31.89V33.25L37.77 32.8C37.61 32.64 37.36 32.64 37.2 32.8C37.04 32.96 37.04 33.21 37.2 33.37L38.22 34.39V35.85L36.96 35.12L36.59 33.73C36.53 33.52 36.31 33.39 36.1 33.45C35.89 33.51 35.76 33.73 35.82 33.94L35.99 34.56L34.81 33.88C34.62 33.77 34.37 33.84 34.26 34.03C34.15 34.22 34.22 34.47 34.41 34.58L35.59 35.26L34.97 35.43C34.76 35.49 34.63 35.71 34.69 35.92C34.74 36.1 34.9 36.22 35.08 36.22C35.11 36.22 35.15 36.22 35.18 36.21L36.57 35.84L37.83 36.57L36.57 37.3L35.18 36.93C34.97 36.88 34.75 37 34.69 37.21C34.63 37.42 34.76 37.64 34.97 37.7L35.59 37.87L34.41 38.55C34.22 38.66 34.15 38.91 34.26 39.1C34.33 39.23 34.47 39.3 34.61 39.3C34.68 39.3 34.75 39.28 34.81 39.25L35.99 38.57L35.82 39.19C35.76 39.4 35.89 39.62 36.1 39.68C36.13 39.68 36.17 39.69 36.2 39.69C36.38 39.69 36.54 39.57 36.59 39.39L36.96 38L38.22 37.27V38.73L37.2 39.75C37.04 39.91 37.04 40.16 37.2 40.32C37.36 40.48 37.61 40.48 37.77 40.32L38.22 39.87V41.23C38.22 41.45 38.4 41.63 38.62 41.63C38.84 41.63 39.02 41.45 39.02 41.23V39.87L39.47 40.32C39.55 40.4 39.65 40.44 39.75 40.44C39.85 40.44 39.95 40.4 40.03 40.32C40.19 40.16 40.19 39.91 40.03 39.75L39.01 38.73V37.27L40.27 38L40.64 39.39C40.69 39.57 40.85 39.69 41.03 39.69C41.06 39.69 41.1 39.69 41.13 39.68C41.34 39.62 41.47 39.4 41.41 39.19L41.24 38.57L42.42 39.25C42.48 39.29 42.55 39.3 42.62 39.3C42.76 39.3 42.89 39.23 42.97 39.1C43.08 38.91 43.01 38.66 42.82 38.55H42.83Z" fill="#E4F2F9"/>
<path d="M38.21 31.93V33.29L37.76 32.84C37.6 32.68 37.35 32.68 37.19 32.84C37.03 33 37.03 33.25 37.19 33.41L38.21 34.43V35.89L36.95 35.16L36.58 33.77C36.52 33.56 36.3 33.43 36.09 33.49C35.88 33.55 35.75 33.77 35.81 33.98L35.98 34.6L34.8 33.92C34.61 33.81 34.36 33.88 34.25 34.07C34.14 34.26 34.21 34.51 34.4 34.62L35.58 35.3L34.96 35.47C34.75 35.53 34.62 35.75 34.68 35.96C34.73 36.14 34.89 36.26 35.07 36.26C35.1 36.26 35.14 36.26 35.17 36.25L36.56 35.88L37.82 36.61L36.56 37.34L35.17 36.97C34.96 36.92 34.74 37.04 34.68 37.25C34.62 37.46 34.75 37.68 34.96 37.74L35.58 37.91L34.4 38.59C34.21 38.7 34.14 38.95 34.25 39.14C34.32 39.27 34.46 39.34 34.6 39.34C34.67 39.34 34.74 39.32 34.8 39.29L35.98 38.61L35.81 39.23C35.75 39.44 35.88 39.66 36.09 39.72C36.12 39.72 36.16 39.73 36.19 39.73C36.37 39.73 36.53 39.61 36.58 39.43L36.95 38.04L38.21 37.31V38.77L37.19 39.79C37.03 39.95 37.03 40.2 37.19 40.36C37.35 40.52 37.6 40.52 37.76 40.36L38.21 39.91V41.27C38.21 41.49 38.39 41.67 38.61 41.67V31.58C38.39 31.58 38.21 31.76 38.21 31.98V31.93Z" fill="#D7EDF9"/>
<path d="M38.61 49.28C39.1623 49.28 39.61 48.8323 39.61 48.28C39.61 47.7277 39.1623 47.28 38.61 47.28C38.0577 47.28 37.61 47.7277 37.61 48.28C37.61 48.8323 38.0577 49.28 38.61 49.28Z" fill="#E4F2F9"/>
</g>
<defs>
<clipPath id="clip0_223_3291">
<rect width="35.75" height="44.38" fill="white" transform="translate(10 6)"/>
</clipPath>
</defs>
</svg>
