<svg width="56" height="56" viewBox="0 0 56 56" fill="none" xmlns="http://www.w3.org/2000/svg">
<g clip-path="url(#clip0_223_3284)">
<path d="M31.67 9.98L28.26 7.27C27.81 6.91 27.17 6.91 26.72 7.27L23.3 10C23.03 10.21 22.69 10.31 22.35 10.26L18.03 9.61C17.46 9.53 16.91 9.84 16.7 10.38L15.11 14.45C14.99 14.77 14.73 15.02 14.41 15.15L10.34 16.75C9.80999 16.96 9.48999 17.51 9.56999 18.08L10.23 22.4C10.28 22.74 10.19 23.08 9.97999 23.35L7.25999 26.77C6.89999 27.22 6.89999 27.86 7.25999 28.31L9.98999 31.73C10.2 32 10.3 32.34 10.25 32.68L9.59999 37C9.51999 37.57 9.82999 38.12 10.37 38.33L14.44 39.92C14.76 40.04 15.01 40.3 15.14 40.62L16.74 44.69C16.95 45.22 17.5 45.54 18.07 45.46L22.39 44.8C22.73 44.75 23.07 44.84 23.34 45.05L26.76 47.77C27.21 48.13 27.85 48.13 28.3 47.77L31.72 45.04C31.99 44.83 32.33 44.73 32.67 44.78L36.99 45.43C37.56 45.51 38.11 45.2 38.32 44.66L39.91 40.59C40.03 40.27 40.29 40.02 40.61 39.89L44.68 38.29C45.21 38.08 45.53 37.53 45.45 36.96L44.79 32.64C44.74 32.3 44.83 31.96 45.04 31.69L47.76 28.27C48.12 27.82 48.12 27.18 47.76 26.73L45.03 23.31C44.82 23.04 44.72 22.7 44.77 22.36L45.42 18.04C45.5 17.47 45.19 16.92 44.65 16.71L40.56 15.11C40.25 14.99 40 14.75 39.87 14.44L38.08 10.24C37.86 9.71 37.3 9.41 36.73 9.51L32.63 10.23C32.28 10.29 31.93 10.2 31.65 9.98H31.67Z" fill="#F2DC86"/>
<path d="M7.27 28.27C6.91 27.82 6.91 27.18 7.27 26.73L10 23.31C10.21 23.04 10.31 22.7 10.26 22.36L9.61 18.04C9.53 17.47 9.84 16.92 10.38 16.71L14.47 15.11C14.78 14.99 15.03 14.75 15.16 14.44L16.95 10.24C17.17 9.71001 17.73 9.41001 18.3 9.51001L22.4 10.23C22.75 10.29 23.1 10.2 23.38 9.98001L26.79 7.27001C27.01 7.10001 27.27 7.01001 27.53 7.01001V48.04C27.25 48.04 26.97 47.96 26.74 47.77L23.32 45.04C23.05 44.83 22.71 44.73 22.37 44.78L18.05 45.43C17.48 45.51 16.93 45.2 16.72 44.66L15.13 40.59C15.01 40.27 14.75 40.02 14.43 39.89L10.36 38.29C9.83 38.08 9.51 37.53 9.59 36.96L10.25 32.64C10.3 32.3 10.21 31.96 10 31.69L7.28 28.27H7.27Z" fill="#E8CD65"/>
<path d="M27.52 41.28C35.1194 41.28 41.28 35.1194 41.28 27.52C41.28 19.9206 35.1194 13.76 27.52 13.76C19.9206 13.76 13.76 19.9206 13.76 27.52C13.76 35.1194 19.9206 41.28 27.52 41.28Z" fill="#EDC05E"/>
<path d="M13.76 27.52C13.76 35.1194 19.9206 41.28 27.52 41.28V13.76C19.9206 13.76 13.76 19.9206 13.76 27.52Z" fill="#E7B54A"/>
</g>
<defs>
<clipPath id="clip0_223_3284">
<rect width="41.04" height="41.04" fill="white" transform="translate(7 7)"/>
</clipPath>
</defs>
</svg>
