<svg width="56" height="56" viewBox="0 0 56 56" fill="none" xmlns="http://www.w3.org/2000/svg">
<g clip-path="url(#clip0_223_3286)">
<path d="M9.92 14.42C10.06 14.42 10.2 14.45 10.34 14.46C10.83 13.48 11.83 12.8 13 12.8C13.32 12.8 13.62 12.86 13.91 12.96C14.28 10.71 16.23 8.98999 18.58 8.98999C21.2 8.98999 23.32 11.11 23.32 13.73C23.32 14.03 23.29 14.32 23.24 14.61C23.6 14.5 23.98 14.42 24.38 14.42C26.55 14.42 28.3 16.18 28.3 18.34C28.3 20.5 26.54 22.26 24.38 22.26H9.92C7.76 22.27 6 20.51 6 18.35C6 16.19 7.76 14.43 9.92 14.43V14.42Z" fill="#9FDEF7"/>
<path d="M9.92 14.42C10.06 14.42 10.2 14.45 10.34 14.46C10.83 13.48 11.83 12.8 13 12.8C13.32 12.8 13.62 12.86 13.91 12.96C14.2 11.19 15.47 9.75998 17.15 9.22998V22.26H9.92C7.75 22.26 6 20.5 6 18.34C6 16.18 7.76 14.42 9.92 14.42Z" fill="#83D4ED"/>
<path d="M14.52 23.56C14.8 23.56 15.07 23.61 15.35 23.64C16.31 21.72 18.27 20.38 20.57 20.38C21.2 20.38 21.79 20.5 22.36 20.69C23.08 16.27 26.91 12.9 31.53 12.9C36.67 12.9 40.83 17.06 40.83 22.2C40.83 22.79 40.77 23.36 40.66 23.92C41.38 23.7 42.12 23.55 42.91 23.55C47.17 23.55 50.61 27 50.61 31.25C50.61 35.5 47.16 38.95 42.91 38.95H14.52C10.26 38.95 6.82001 35.5 6.82001 31.25C6.82001 27 10.27 23.55 14.52 23.55V23.56Z" fill="#BEEAFC"/>
<path d="M14.52 23.5599C14.8 23.5599 15.07 23.6099 15.35 23.6399C16.31 21.7199 18.27 20.3799 20.57 20.3799C21.2 20.3799 21.79 20.4999 22.36 20.6899C22.93 17.2099 25.43 14.4099 28.72 13.3699V38.9699H14.52C10.26 38.9699 6.82001 35.5199 6.82001 31.2699C6.82001 27.0199 10.27 23.5699 14.52 23.5699V23.5599Z" fill="#AEE4FF"/>
<path d="M44.17 37.18C44 37.18 43.84 37.21 43.67 37.23C43.09 36.07 41.9 35.26 40.52 35.26C40.14 35.26 39.78 35.34 39.44 35.45C39 32.78 36.69 30.74 33.9 30.74C30.8 30.74 28.28 33.26 28.28 36.36C28.28 36.72 28.32 37.06 28.38 37.4C27.95 37.27 27.5 37.18 27.02 37.18C24.45 37.18 22.37 39.26 22.37 41.83C22.37 44.4 24.45 46.48 27.02 46.48H44.17C46.74 46.48 48.82 44.4 48.82 41.83C48.82 39.26 46.74 37.18 44.17 37.18Z" fill="#E4F2F9"/>
<path d="M35.6 31.03C35.06 30.86 34.5 30.75 33.9 30.75C30.8 30.75 28.28 33.27 28.28 36.37C28.28 36.73 28.32 37.07 28.38 37.41C27.95 37.28 27.5 37.19 27.02 37.19C24.45 37.19 22.37 39.27 22.37 41.84C22.37 44.41 24.45 46.49 27.02 46.49H35.59V31.03H35.6Z" fill="#D7EDF9"/>
</g>
<defs>
<clipPath id="clip0_223_3286">
<rect width="44.62" height="37.49" fill="white" transform="translate(6 9)"/>
</clipPath>
</defs>
</svg>
