<svg width="56" height="56" viewBox="0 0 56 56" fill="none" xmlns="http://www.w3.org/2000/svg">
<g clip-path="url(#clip0_223_3288)">
<path d="M18.8 16.6C19.03 16.6 19.25 16.64 19.47 16.67C20.24 15.12 21.83 14.04 23.68 14.04C24.19 14.04 24.67 14.14 25.12 14.29C25.7 10.73 28.79 8.01001 32.52 8.01001C36.66 8.01001 40.02 11.37 40.02 15.51C40.02 15.99 39.97 16.45 39.89 16.9C40.47 16.72 41.07 16.6 41.7 16.6C45.13 16.6 47.92 19.38 47.92 22.82C47.92 26.26 45.14 29.04 41.7 29.04H18.8C15.37 29.04 12.58 26.26 12.58 22.82C12.58 19.38 15.36 16.6 18.8 16.6Z" fill="#E4F2F9"/>
<path d="M18.8 16.6C19.03 16.6 19.25 16.64 19.47 16.67C20.24 15.12 21.83 14.04 23.68 14.04C24.19 14.04 24.67 14.14 25.12 14.29C25.58 11.49 27.6 9.23 30.25 8.38V29.03H18.8C15.37 29.03 12.58 26.25 12.58 22.81C12.58 19.37 15.36 16.59 18.8 16.59V16.6Z" fill="#D7EDF9"/>
<path d="M9.49998 48.1C9.39998 48.1 9.29998 48.07 9.21998 48.01C8.98998 47.85 8.93998 47.5401 9.08998 47.3101L11.02 44.51C11.18 44.28 11.49 44.2201 11.72 44.3801C11.95 44.5401 12 44.8501 11.85 45.0801L9.91998 47.8801C9.81998 48.0201 9.66998 48.1 9.50998 48.1H9.49998ZM13.36 42.5C13.26 42.5 13.16 42.47 13.08 42.41C12.85 42.25 12.8 41.94 12.95 41.71L14.88 38.91C15.04 38.68 15.35 38.6201 15.58 38.7801C15.81 38.9401 15.86 39.25 15.71 39.48L13.78 42.28C13.68 42.42 13.53 42.5 13.37 42.5H13.36ZM17.23 36.9C17.13 36.9 17.03 36.87 16.95 36.81C16.72 36.65 16.67 36.3401 16.82 36.1101L18.75 33.31C18.91 33.08 19.22 33.02 19.45 33.18C19.68 33.34 19.73 33.65 19.58 33.88L17.65 36.68C17.55 36.8201 17.4 36.9 17.24 36.9H17.23Z" fill="#E4EDF3"/>
<path d="M17.48 48.1C17.38 48.1 17.28 48.07 17.2 48.01C16.97 47.85 16.92 47.5401 17.07 47.3101L19 44.51C19.16 44.28 19.47 44.2201 19.7 44.3801C19.93 44.5401 19.98 44.8501 19.83 45.0801L17.9 47.8801C17.8 48.0201 17.65 48.1 17.49 48.1H17.48ZM21.34 42.5C21.24 42.5 21.14 42.47 21.06 42.41C20.83 42.25 20.78 41.94 20.93 41.71L22.86 38.91C23.02 38.68 23.33 38.6201 23.56 38.7801C23.79 38.9401 23.84 39.25 23.69 39.48L21.76 42.28C21.66 42.42 21.51 42.5 21.35 42.5H21.34ZM25.2 36.9C25.1 36.9 25 36.87 24.92 36.81C24.69 36.65 24.64 36.3401 24.79 36.1101L26.72 33.31C26.88 33.08 27.19 33.02 27.42 33.18C27.65 33.34 27.7 33.65 27.55 33.88L25.62 36.68C25.52 36.8201 25.37 36.9 25.21 36.9H25.2Z" fill="#E4EDF3"/>
<path d="M25.45 48.1C25.35 48.1 25.25 48.07 25.17 48.01C24.94 47.85 24.89 47.5401 25.04 47.3101L26.97 44.51C27.13 44.28 27.44 44.2301 27.67 44.3801C27.9 44.5401 27.95 44.8501 27.8 45.0801L25.87 47.8801C25.77 48.0201 25.62 48.1 25.46 48.1H25.45ZM29.32 42.5C29.22 42.5 29.12 42.47 29.04 42.41C28.81 42.25 28.76 41.94 28.91 41.71L30.84 38.91C31 38.68 31.31 38.6201 31.54 38.7801C31.77 38.9401 31.82 39.25 31.67 39.48L29.74 42.28C29.64 42.42 29.49 42.5 29.33 42.5H29.32ZM33.18 36.9C33.08 36.9 32.98 36.87 32.9 36.81C32.67 36.65 32.62 36.3401 32.77 36.1101L34.7 33.31C34.86 33.08 35.17 33.02 35.4 33.18C35.63 33.34 35.68 33.65 35.53 33.88L33.6 36.68C33.5 36.8201 33.35 36.9 33.19 36.9H33.18Z" fill="#E4EDF3"/>
<path d="M33.43 48.1C33.33 48.1 33.23 48.07 33.15 48.01C32.92 47.85 32.87 47.5401 33.02 47.3101L34.95 44.51C35.11 44.28 35.42 44.2201 35.65 44.3801C35.88 44.5401 35.93 44.8501 35.78 45.0801L33.85 47.8801C33.75 48.0201 33.6 48.1 33.44 48.1H33.43ZM37.29 42.5C37.19 42.5 37.09 42.47 37.01 42.41C36.78 42.25 36.73 41.94 36.88 41.71L38.81 38.91C38.97 38.68 39.28 38.6301 39.51 38.7801C39.74 38.9401 39.79 39.25 39.64 39.48L37.71 42.28C37.61 42.42 37.46 42.5 37.3 42.5H37.29ZM41.16 36.9C41.06 36.9 40.96 36.87 40.88 36.81C40.65 36.65 40.6 36.3401 40.75 36.1101L42.68 33.31C42.84 33.08 43.15 33.02 43.38 33.18C43.61 33.34 43.66 33.65 43.51 33.88L41.58 36.68C41.48 36.8201 41.33 36.9 41.17 36.9H41.16Z" fill="#E4EDF3"/>
</g>
<defs>
<clipPath id="clip0_223_3288">
<rect width="38.92" height="40.1" fill="white" transform="translate(9 8)"/>
</clipPath>
</defs>
</svg>
