<svg width="56" height="56" viewBox="0 0 56 56" fill="none" xmlns="http://www.w3.org/2000/svg">
<g clip-path="url(#clip0_311_3013)">
<path d="M15.3 20.12L10.86 21.02L13.93 24.35L13.41 28.85L17.53 26.97V16.17L15.3 20.12Z" fill="#EDB84A"/>
<path d="M24.2 21.02L19.75 20.12L17.53 16.17V26.97L21.65 28.85L21.13 24.35L24.2 21.02Z" fill="#EFD577"/>
<path d="M28.26 15.98L26.05 16.43L27.58 18.09L27.32 20.33L29.37 19.39V14.02L28.26 15.98Z" fill="#EDB84A"/>
<path d="M32.68 16.43L30.47 15.98L29.37 14.02V19.39L31.42 20.33L31.16 18.09L32.68 16.43Z" fill="#EFD577"/>
<path d="M44.94 16.6C45 17.34 45.04 18.08 45.04 18.84C45.04 33.31 33.31 45.05 18.83 45.05C18.08 45.05 17.33 45.01 16.59 44.95C19.57 46.6 23 47.54 26.65 47.54C38.18 47.54 47.52 38.2 47.52 26.67C47.52 23.02 46.58 19.59 44.93 16.61L44.94 16.6Z" fill="#EDB84A"/>
<path d="M45.05 18.84C45.05 18.09 45.01 17.34 44.95 16.6C42.91 12.91 39.8 9.9 36.02 8C37.43 10.81 38.23 13.99 38.23 17.35C38.23 28.88 28.89 38.22 17.36 38.22C14 38.22 10.82 37.42 8.01001 36.01C9.91001 39.79 12.92 42.9 16.61 44.94C17.35 45 18.09 45.04 18.85 45.04C33.32 45.04 45.06 33.31 45.06 18.83L45.05 18.84Z" fill="#EFD577"/>
</g>
<defs>
<clipPath id="clip0_311_3013">
<rect width="39.53" height="39.53" fill="white" transform="translate(8 8)"/>
</clipPath>
</defs>
</svg>
