<svg width="56" height="56" viewBox="0 0 56 56" fill="none" xmlns="http://www.w3.org/2000/svg">
<g clip-path="url(#clip0_223_3292)">
<path d="M26.66 16.01C26.85 16.01 27.02 16.05 27.21 16.07C27.84 14.81 29.13 13.93 30.64 13.93C31.05 13.93 31.44 14.01 31.82 14.13C32.3 11.23 34.81 9.01001 37.85 9.01001C41.23 9.01001 43.97 11.75 43.97 15.13C43.97 15.52 43.93 15.9 43.86 16.26C44.33 16.12 44.82 16.02 45.34 16.02C48.14 16.02 50.41 18.29 50.41 21.09C50.41 23.89 48.14 26.16 45.34 26.16H26.67C23.87 26.16 21.6 23.89 21.6 21.09C21.6 18.29 23.87 16.02 26.67 16.02L26.66 16.01Z" fill="#BEEAFC"/>
<path d="M26.66 16.0101C26.85 16.0101 27.02 16.0501 27.21 16.0701C27.84 14.8101 29.13 13.9301 30.64 13.9301C31.05 13.9301 31.44 14.0101 31.82 14.1301C32.19 11.8401 33.84 10.0001 36 9.31006V26.1501H26.66C23.86 26.1501 21.59 23.8801 21.59 21.0801C21.59 18.2801 23.86 16.0101 26.66 16.0101Z" fill="#AEE4FF"/>
<path d="M35.61 24.13C35.37 24.13 35.14 24.18 34.91 24.2C34.1 22.57 32.43 21.44 30.48 21.44C29.95 21.44 29.44 21.55 28.96 21.7C28.35 17.95 25.1 15.09 21.18 15.09C16.82 15.09 13.29 18.62 13.29 22.98C13.29 23.48 13.34 23.97 13.43 24.44C12.82 24.25 12.19 24.12 11.52 24.12C7.93 24.13 5 27.05 5 30.66C5 34.27 7.93 37.19 11.53 37.19H35.61C39.22 37.19 42.14 34.26 42.14 30.66C42.14 27.06 39.21 24.13 35.61 24.13Z" fill="#E4F2F9"/>
<path d="M23.57 15.49C22.82 15.25 22.02 15.1 21.19 15.1C16.83 15.1 13.3 18.63 13.3 22.99C13.3 23.49 13.35 23.98 13.44 24.45C12.83 24.26 12.2 24.13 11.53 24.13C7.92 24.13 5 27.06 5 30.66C5 34.26 7.93 37.19 11.53 37.19H23.57V15.49Z" fill="#D7EDF9"/>
<path d="M47.67 36.2301C45.38 36.2301 44.2 35.0501 43.16 34.0001C42.12 32.9601 41.23 32.0701 39.35 32.0701C37.47 32.0701 36.58 32.9701 35.54 34.0001C34.5 35.0401 33.31 36.2301 31.03 36.2301C28.75 36.2301 27.56 35.0501 26.52 34.0001C25.48 32.9601 24.59 32.0701 22.72 32.0701C20.85 32.0701 19.95 32.9701 18.91 34.0001C17.87 35.0301 16.68 36.2301 14.4 36.2301C12.12 36.2301 10.93 35.0501 9.89003 34.0001C8.85003 32.9601 7.96003 32.0701 6.09003 32.0701C5.81003 32.0701 5.59003 31.8501 5.59003 31.5701C5.59003 31.2901 5.81003 31.0701 6.09003 31.0701C8.38003 31.0701 9.56003 32.2501 10.6 33.3001C11.64 34.3401 12.53 35.2301 14.4 35.2301C16.27 35.2301 17.17 34.3301 18.21 33.3001C19.25 32.2601 20.44 31.0701 22.72 31.0701C25 31.0701 26.19 32.2501 27.23 33.3001C28.27 34.3401 29.16 35.2301 31.03 35.2301C32.9 35.2301 33.8 34.3301 34.84 33.3001C35.88 32.2601 37.07 31.0701 39.35 31.0701C41.63 31.0701 42.82 32.2501 43.86 33.3001C44.9 34.3401 45.79 35.2301 47.67 35.2301C47.95 35.2301 48.17 35.4501 48.17 35.7301C48.17 36.0101 47.95 36.2301 47.67 36.2301Z" fill="#CCCCCB"/>
<path d="M47.67 39.7701C45.38 39.7701 44.2 38.5901 43.16 37.5401C42.12 36.5001 41.23 35.6101 39.35 35.6101C37.47 35.6101 36.58 36.5101 35.54 37.5401C34.5 38.5801 33.31 39.7701 31.03 39.7701C28.75 39.7701 27.56 38.5901 26.52 37.5401C25.48 36.5001 24.59 35.6101 22.72 35.6101C20.85 35.6101 19.95 36.5101 18.91 37.5401C17.87 38.5701 16.68 39.7701 14.4 39.7701C12.12 39.7701 10.93 38.5901 9.89003 37.5401C8.85003 36.5001 7.96003 35.6101 6.09003 35.6101C5.81003 35.6101 5.59003 35.3901 5.59003 35.1101C5.59003 34.8301 5.81003 34.6101 6.09003 34.6101C8.38003 34.6101 9.56003 35.7901 10.6 36.8401C11.64 37.8801 12.53 38.7701 14.4 38.7701C16.27 38.7701 17.17 37.8701 18.21 36.8401C19.25 35.8001 20.44 34.6101 22.72 34.6101C25 34.6101 26.19 35.7901 27.23 36.8401C28.27 37.8801 29.16 38.7701 31.03 38.7701C32.9 38.7701 33.8 37.8701 34.84 36.8401C35.88 35.8001 37.07 34.6101 39.35 34.6101C41.63 34.6101 42.82 35.7901 43.86 36.8401C44.9 37.8801 45.79 38.7701 47.67 38.7701C47.95 38.7701 48.17 38.9901 48.17 39.2701C48.17 39.5501 47.95 39.7701 47.67 39.7701Z" fill="#CCCCCB"/>
<path d="M47.67 43.32C45.38 43.32 44.2 42.14 43.16 41.09C42.12 40.05 41.23 39.16 39.35 39.16C37.47 39.16 36.58 40.06 35.54 41.09C34.5 42.13 33.31 43.32 31.03 43.32C28.75 43.32 27.56 42.14 26.52 41.09C25.48 40.05 24.59 39.16 22.72 39.16C20.85 39.16 19.95 40.06 18.91 41.09C17.87 42.12 16.68 43.32 14.4 43.32C12.12 43.32 10.93 42.14 9.89003 41.09C8.85003 40.05 7.96003 39.16 6.09003 39.16C5.81003 39.16 5.59003 38.94 5.59003 38.66C5.59003 38.38 5.81003 38.16 6.09003 38.16C8.38003 38.16 9.56003 39.34 10.6 40.39C11.64 41.43 12.53 42.32 14.4 42.32C16.27 42.32 17.17 41.42 18.21 40.39C19.25 39.35 20.44 38.16 22.72 38.16C25 38.16 26.19 39.34 27.23 40.39C28.27 41.43 29.16 42.32 31.03 42.32C32.9 42.32 33.8 41.42 34.84 40.39C35.88 39.35 37.07 38.16 39.35 38.16C41.63 38.16 42.82 39.34 43.86 40.39C44.9 41.43 45.79 42.32 47.67 42.32C47.95 42.32 48.17 42.54 48.17 42.82C48.17 43.1 47.95 43.32 47.67 43.32Z" fill="#CCCCCB"/>
<path d="M47.67 46.8601C45.38 46.8601 44.2 45.6801 43.16 44.6301C42.12 43.5901 41.23 42.7001 39.35 42.7001C37.47 42.7001 36.58 43.6001 35.54 44.6301C34.5 45.6701 33.31 46.8601 31.03 46.8601C28.75 46.8601 27.56 45.6801 26.52 44.6301C25.48 43.5901 24.59 42.7001 22.72 42.7001C20.85 42.7001 19.95 43.6001 18.91 44.6301C17.87 45.6601 16.68 46.8601 14.4 46.8601C12.12 46.8601 10.93 45.6801 9.89003 44.6301C8.85003 43.5901 7.96003 42.7001 6.09003 42.7001C5.81003 42.7001 5.59003 42.4801 5.59003 42.2001C5.59003 41.9201 5.81003 41.7001 6.09003 41.7001C8.38003 41.7001 9.56003 42.8801 10.6 43.9301C11.64 44.9701 12.53 45.8601 14.4 45.8601C16.27 45.8601 17.17 44.9601 18.21 43.9301C19.25 42.8901 20.44 41.7001 22.72 41.7001C25 41.7001 26.19 42.8801 27.23 43.9301C28.27 44.9701 29.16 45.8601 31.03 45.8601C32.9 45.8601 33.8 44.9601 34.84 43.9301C35.88 42.8901 37.07 41.7001 39.35 41.7001C41.63 41.7001 42.82 42.8801 43.86 43.9301C44.9 44.9701 45.79 45.8601 47.67 45.8601C47.95 45.8601 48.17 46.0801 48.17 46.3601C48.17 46.6401 47.95 46.8601 47.67 46.8601Z" fill="#CCCCCB"/>
</g>
<defs>
<clipPath id="clip0_223_3292">
<rect width="45.4" height="37.86" fill="white" transform="translate(5 9)"/>
</clipPath>
</defs>
</svg>
