<svg width="183" height="183" viewBox="0 0 183 183" fill="none" xmlns="http://www.w3.org/2000/svg">
<rect width="183" height="183" rx="32" fill="#0056AB"/>
<path d="M138.141 55.64H141.753C148.86 55.64 150.957 61.1155 150.957 65.7755C150.957 70.552 148.743 75.911 141.753 75.911H138.141V92.8035H114.841V48.5335C114.841 40.961 120.317 37 126.492 37C132.666 37 138.141 40.961 138.141 48.5335V55.64ZM99.2305 90.4735H52.747C42.961 90.4735 39 85.5805 39 77.1925V49.815C39 42.825 44.2425 39.33 50.5335 39.33C56.941 39.33 61.834 42.9415 61.834 49.4655V70.086C61.834 71.95 62.533 72.5325 64.397 72.5325H99.2305C105.988 72.5325 107.968 76.9595 107.968 81.3865C107.968 85.93 105.871 90.4735 99.2305 90.4735ZM69.523 132.297H135.229C139.889 132.297 141.869 136.141 141.869 139.636C141.869 142.898 140.005 146.393 135.229 146.393H58.805C48.2035 146.393 42.3785 139.403 42.3785 131.132V128.336C42.3785 120.298 48.2035 114.938 58.805 114.938H115.191V112.026C115.191 110.628 114.841 110.162 113.327 110.162H50.0675C45.524 110.162 43.66 106.667 43.66 103.172C43.66 99.91 45.6405 96.2985 50.0675 96.2985H124.977C135.112 96.2985 138.84 99.3275 138.84 108.414V127.521H69.523C67.7755 127.521 67.0765 128.452 67.0765 129.618V130.2C67.0765 131.365 67.7755 132.297 69.523 132.297Z" fill="white"/>
</svg>
